<svg xmlns="http://www.w3.org/2000/svg" id="Layer_2" data-name="Layer 2" viewBox="0 0 694.03 139.42">
    <g id="Layer_1-2">
        <path class="letters" d="M29.3 80.53c-6.74 0-10.21 2.93-10.25 6.93-.1 4.39 4.2 6.54 10.55 7.91l6.15 1.46c13.62 2.98 21.53 9.77 21.58 21.09-.05 13.38-10.45 21.44-28.03 21.48-17.63-.05-29-7.96-29.3-24.22h16.02c.39 6.84 5.52 10.35 13.09 10.35 7.03 0 11.23-3.08 11.33-7.62-.1-4.1-3.71-6.25-11.52-8.01l-7.42-1.76C9.34 105.31 1.87 99.25 1.87 88.61c-.05-13.13 11.52-21.88 27.54-21.88s26.81 8.89 26.95 21.97H40.34c-.44-5.13-4.25-8.2-11.04-8.2ZM83.01 107.1c3.86-.24 10.45-.49 12.7-.59v-4.3c0-3.71-2.73-5.81-7.23-5.76-4.35-.05-7.18 1.9-7.81 5.37H65.34c.73-9.38 8.64-17.09 23.54-17.09 13.09 0 23.29 6.2 23.34 17.68v36.04H96.69v-7.42h-.39c-2.88 5.37-8.01 8.35-15.43 8.4-10.16-.05-17.53-5.22-17.48-15.72-.05-11.77 9.08-15.97 19.63-16.6Zm2.83 21.39c5.62 0 10.01-3.66 9.96-8.89v-3.42c-2 .05-7.57.34-10.06.59-4.15.44-6.79 2.73-6.74 6.25-.05 3.56 2.83 5.47 6.84 5.47ZM153.12 138.44h-18.85l-18.16-53.03h17.29l10.06 36.82h.59l9.96-36.82h17.38l-18.26 53.03ZM173.97 112.17c0-16.46 10.25-27.44 26.17-27.44 14.89 0 25.59 9.47 25.59 27.05v4.2h-35.55v.29c.05 6.79 4.15 11.23 10.84 11.23 4.49 0 7.86-1.95 9.18-5.08h15.33c-2 10.35-11.08 16.99-24.8 16.99-16.6 0-26.76-10.35-26.76-27.25Zm36.43-5.86c-.1-5.66-4.2-9.67-9.86-9.67s-10.11 4.2-10.35 9.67h20.21ZM286.18 97.53h-9.67v24.32c.05 3.32 1.71 4.35 4.49 4.39 1.37.1 4-.05 5.86-.2v12.6c-1.61.24-4.35.54-8.2.59-11.67-.05-18.65-4.83-18.55-15.53V97.53h-7.13V85.42h7.13v-12.7h16.41v12.7h9.67v12.11ZM312.3 138.44h-16.5v-70.7h15.92v27.34h.59c2.44-6.49 8.01-10.35 15.92-10.35 11.18 0 18.46 7.81 18.46 19.92v33.79h-16.5v-30.66c.05-5.96-3.12-9.52-8.69-9.57-5.47.05-9.18 3.71-9.18 9.86v30.37ZM354.98 112.17c0-16.46 10.25-27.44 26.17-27.44 14.89 0 25.59 9.47 25.59 27.05v4.2h-35.55v.29c.05 6.79 4.15 11.23 10.84 11.23 4.49 0 7.86-1.95 9.18-5.08h15.33c-2 10.35-11.08 16.99-24.8 16.99-16.6 0-26.76-10.35-26.76-27.25Zm36.43-5.86c-.1-5.66-4.2-9.67-9.86-9.67s-10.11 4.2-10.35 9.67h20.21ZM437.7 67.74h48.93v13.57h-32.32v14.94h29.79v13.57h-29.79v15.04h32.42v13.57h-49.02v-70.7ZM514.36 107.1c3.86-.24 10.45-.49 12.7-.59v-4.3c0-3.71-2.73-5.81-7.23-5.76-4.35-.05-7.18 1.9-7.81 5.37h-15.33c.73-9.38 8.64-17.09 23.54-17.09 13.09 0 23.29 6.2 23.34 17.68v36.04h-15.53v-7.42h-.39c-2.88 5.37-8.01 8.35-15.43 8.4-10.16-.05-17.53-5.22-17.48-15.72-.05-11.77 9.08-15.97 19.63-16.6Zm2.83 21.39c5.62 0 10.01-3.66 9.96-8.89v-3.42c-2 .05-7.57.34-10.06.59-4.15.44-6.79 2.73-6.74 6.25-.05 3.56 2.83 5.47 6.84 5.47ZM553.61 85.42h16.02v9.57h.49c1.95-6.93 6.64-10.3 12.5-10.35 1.51.05 3.32.29 4.69.59v14.36c-1.56-.49-4.54-.83-6.54-.78-6.15-.05-10.69 4.25-10.64 10.64v29h-16.5V85.42ZM626.03 97.53h-9.67v24.32c.05 3.32 1.71 4.35 4.49 4.39 1.37.1 4-.05 5.86-.2v12.6c-1.61.24-4.35.54-8.2.59-11.67-.05-18.65-4.83-18.55-15.53V97.53h-7.13V85.42h7.13v-12.7h16.41v12.7h9.67v12.11ZM652.15 138.44h-16.5v-70.7h15.92v27.34h.59c2.44-6.49 8.01-10.35 15.92-10.35 11.18 0 18.46 7.81 18.46 19.92v33.79h-16.5v-30.66c.05-5.96-3.12-9.52-8.69-9.57-5.47.05-9.18 3.71-9.18 9.86v30.37Z"/>
        <path class="point" d="M430.35 56.76C455.52 24.91 505.69 4.9 560.1 5c54.12.1 103.89 20.09 128.93 51.76" style="fill:none;stroke:#3b82bf;stroke-linecap:round;stroke-miterlimit:10;stroke-width:10px"/>
    </g>
</svg>
